<svg width="24" height="28" viewBox="0 0 24 28" fill="none" xmlns="http://www.w3.org/2000/svg">
<path d="M20.1765 19.6V20.0167L20.4723 20.3101L22.9832 22.8H1.01681L3.52767 20.3101L3.82353 20.0167V19.6V11.9C3.82353 8.10868 6.524 4.86481 10.103 4.05536L10.8824 3.87909V3.08V2.1C10.8824 1.47016 11.3444 1 12 1C12.6556 1 13.1176 1.47016 13.1176 2.1V3.08V3.87909L13.897 4.05536C17.476 4.86481 20.1765 8.10868 20.1765 11.9V19.6ZM13.5126 26.2C13.1852 26.6796 12.6304 27 12 27C11.3696 27 10.8148 26.6796 10.4874 26.2H13.5126Z" stroke="#54669C" stroke-width="2"/>
</svg>
